# xmcd
#
# Track frame offsets: 
#        150
#        19712
#        38410
#        62932
#        83710
#        101790
#        123720
#        154462
#        174747
#
# Disc length: 2533 seconds
#
# Revision: 1
# Processed by: cddbd v1.5.2PL0 Copyright (c) Steve Scherf et al.
# Submitted via: ExactAudioCopy v0.95a4
#
DISCID=7509e309
DTITLE=Valiance - Wayfaring
DYEAR=2002
DGENRE=Heavy Metal
TTITLE0=The less beaten path
TTITLE1=Immaterial
TTITLE2=The secret (Melting snow)
TTITLE3=Gates of winter
TTITLE4=Neverending flame
TTITLE5=Victim of my pride
TTITLE6=Recall
TTITLE7=Free man's cage
TTITLE8=Valiant day
EXTD=
EXTT0=
EXTT1=
EXTT2=
EXTT3=
EXTT4=
EXTT5=
EXTT6=
EXTT7=
EXTT8=
PLAYORDER=
